HIERARCHY
ROOT Hips
{
 OFFSET 0.000000 0.000000 0.000000
 CHANNELS 6 Xposition Yposition Zposition Yrotation Xrotation Zrotation
 JOINT Chest
 {
  OFFSET 0.000000 9.585900 0.002600
  CHANNELS 3 Yrotation Xrotation Zrotation
  JOINT Chest2
  {
   OFFSET 0.000000 9.601200 -0.005300
   CHANNELS 3 Yrotation Xrotation Zrotation
   JOINT Chest3
   {
    OFFSET 0.000000 9.561800 0.000000
    CHANNELS 3 Yrotation Xrotation Zrotation
    JOINT Chest4
    {
     OFFSET 0.000000 9.552100 0.000000
     CHANNELS 3 Yrotation Xrotation Zrotation
     JOINT Neck
     {
      OFFSET 0.000000 14.453000 0.000000
      CHANNELS 3 Yrotation Xrotation Zrotation
      JOINT Head
      {
       OFFSET 0.000000 8.936500 -0.011300
       CHANNELS 3 Yrotation Xrotation Zrotation
       End Site
       {
        OFFSET 0.000000 17.073600 -0.006000
       }
      }
     }
     JOINT RightCollar
     {
      OFFSET -2.921100 9.558500 0.000000
      CHANNELS 3 Yrotation Xrotation Zrotation
      JOINT RightShoulder
      {
       OFFSET -13.519700 0.000000 0.000000
       CHANNELS 3 Yrotation Xrotation Zrotation
       JOINT RightElbow
       {
        OFFSET 0.000000 -29.696600 0.000000
        CHANNELS 3 Yrotation Xrotation Zrotation
        JOINT RightWrist
        {
         OFFSET 0.000000 -24.004700 0.000000
         CHANNELS 3 Yrotation Xrotation Zrotation
         End Site
         {
          OFFSET 0.000000 -17.728500 0.000000
         }
        }
       }
      }
     }
     JOINT LeftCollar
     {
      OFFSET 2.921100 9.558500 0.000000
      CHANNELS 3 Yrotation Xrotation Zrotation
      JOINT LeftShoulder
      {
       OFFSET 13.519700 0.000000 0.000000
       CHANNELS 3 Yrotation Xrotation Zrotation
       JOINT LeftElbow
       {
        OFFSET 0.000000 -29.696600 0.000000
        CHANNELS 3 Yrotation Xrotation Zrotation
        JOINT LeftWrist
        {
         OFFSET 0.000000 -24.004700 0.000000
         CHANNELS 3 Yrotation Xrotation Zrotation
         End Site
         {
          OFFSET 0.000000 -17.728500 0.000000
         }
        }
       }
      }
     }
    }
   }
  }
 }
 JOINT RightHip
 {
  OFFSET -7.771700 -0.012900 -0.001300
  CHANNELS 3 Yrotation Xrotation Zrotation
  JOINT RightKnee
  {
   OFFSET 0.000000 -40.869800 0.001200
   CHANNELS 3 Yrotation Xrotation Zrotation
   JOINT RightAnkle
   {
    OFFSET 0.000000 -39.717900 0.002100
    CHANNELS 3 Yrotation Xrotation Zrotation
    JOINT RightToe
    {
     OFFSET 0.000000 -4.965400 11.033500
     CHANNELS 3 Yrotation Xrotation Zrotation
     End Site
     {
      OFFSET 0.000000 -1.423100 5.872300
     }
    }
   }
  }
 }
 JOINT LeftHip
 {
  OFFSET 7.771700 -0.012900 -0.001300
  CHANNELS 3 Yrotation Xrotation Zrotation
  JOINT LeftKnee
  {
   OFFSET 0.000000 -40.869800 0.001200
   CHANNELS 3 Yrotation Xrotation Zrotation
   JOINT LeftAnkle
   {
    OFFSET 0.000000 -39.717900 0.002100
    CHANNELS 3 Yrotation Xrotation Zrotation
    JOINT LeftToe
    {
     OFFSET 0.000000 -4.965400 11.033500
     CHANNELS 3 Yrotation Xrotation Zrotation
     End Site
     {
      OFFSET 0.000000 -1.423100 5.872300
     }
    }
   }
  }
 }
}
MOTION
Frames: 14
Frame Time: 0.008333
-48.912305 50.662218 2.405781 165.364050 -19.448147 -0.027865 2.507836 14.354979 1.423757 0.203346 1.264774 0.059841 0.344393 2.135748 0.103735 2.162285 12.839473 0.831343 1.241369 19.157344 1.825414 1.701212 -0.225211 2.951988 5.059920 2.335122 -0.377425 5.855761 -17.571637 -13.493012 43.262094 -53.546958 -25.308786 6.404758 10.942108 -24.390959 -10.254642 -2.251272 -1.429230 0.297601 -19.065422 8.068555 -48.979475 -50.406432 32.284975 -4.115163 1.692851 23.673568 3.004681 -61.395470 -4.549026 -102.647883 78.800104 -105.803394 -3.276371 -12.888208 4.887826 0.178816 0.644429 0.091260 -3.744931 -64.499572 20.224606 97.637306 80.222419 94.800382 -16.319754 -20.656697 -0.409147 -0.562211 -0.586034 -0.255383
-48.913095 50.657921 2.408291 165.346288 -19.452663 -0.057924 2.526957 14.431847 1.457902 0.208810 1.236705 0.059718 0.346669 2.201268 0.102956 2.178855 12.902183 0.825481 1.395572 18.940610 1.813786 1.984091 -0.629441 2.881667 5.073366 2.120655 -0.478566 5.784629 -17.490906 -13.281161 43.140718 -53.454728 -25.336410 6.404508 10.810463 -24.400819 -10.319657 -2.494789 -1.417428 0.364190 -19.014353 8.111484 -48.929783 -50.332208 32.175438 -4.105630 1.611609 23.713522 2.902081 -61.386850 -4.431896 -102.525898 78.792960 -105.687702 -3.272260 -12.905970 4.872710 0.186479 0.668979 0.089000 -3.806592 -64.497113 20.300317 97.676747 80.226239 94.852905 -16.347294 -20.670597 -0.416924 -0.591818 -0.544546 -0.253326
-48.922614 50.652743 2.410634 165.326206 -19.440713 -0.049483 2.539433 14.488906 1.456160 0.213871 1.212378 0.055078 0.350239 2.260056 0.107121 2.199260 12.959043 0.821956 1.544413 18.748532 1.784754 2.263556 -0.987624 2.780360 5.064599 1.941996 -0.536016 5.734866 -17.426413 -13.115017 43.030470 -53.367131 -25.367808 6.400186 10.664569 -24.444344 -10.397200 -2.722723 -1.392225 0.461752 -18.956206 8.154638 -48.912560 -50.289278 32.077593 -4.095981 1.542480 23.749366 2.882758 -61.395499 -4.406929 -102.452478 78.797487 -105.624477 -3.278401 -12.936185 4.868463 0.187655 0.704673 0.088322 -3.842847 -64.544483 20.273084 97.918672 80.172395 95.118426 -16.272744 -20.609551 -0.430620 -0.660225 -0.612639 -0.284670
-48.923707 50.649400 2.408649 165.284568 -19.465914 -0.085811 2.587750 14.576957 1.514638 0.213258 1.284987 0.057305 0.357417 2.172345 0.099608 2.225003 13.058571 0.825839 1.688263 18.592263 1.738066 2.540547 -1.278940 2.647821 5.065626 1.746698 -0.661065 5.643917 -17.337036 -12.873365 42.993919 -53.295282 -25.443251 6.389200 10.542599 -24.506830 -10.491287 -2.956140 -1.362586 0.540267 -18.871839 8.166980 -48.906564 -50.221154 32.032219 -4.081547 1.475339 23.781279 2.806635 -61.370758 -4.285230 -102.400008 78.801194 -105.569816 -3.281468 -12.936615 4.872676 0.192708 0.711285 0.075754 -3.958916 -64.538303 20.374217 98.221740 80.200110 95.462032 -16.183099 -20.626674 -0.443448 -0.645592 -0.629475 -0.309956
-48.928255 50.644290 2.409309 165.274920 -19.467151 -0.123141 2.602882 14.637975 1.565273 0.216139 1.315755 0.058465 0.362290 2.129082 0.090962 2.249044 13.148411 0.829605 1.832240 18.475430 1.674234 2.824223 -1.496293 2.483493 5.070837 1.557997 -0.780180 5.552137 -17.239664 -12.631799 42.977763 -53.218067 -25.536950 6.364972 10.419024 -24.584592 -10.564084 -3.157583 -1.323383 0.594697 -18.808108 8.157106 -48.910363 -50.139262 32.005564 -4.066178 1.411575 23.802554 2.731710 -61.372098 -4.194480 -102.375541 78.805382 -105.538426 -3.290902 -12.933303 4.864066 0.203866 0.713721 0.078078 -4.050388 -64.541936 20.462336 98.319081 80.203738 95.566217 -16.178584 -20.665274 -0.439140 -0.598907 -0.602723 -0.306521
-48.939678 50.637396 2.411451 165.269421 -19.447057 -0.127216 2.602560 14.673659 1.579934 0.219285 1.325870 0.057728 0.370777 2.154734 0.090218 2.266996 13.181537 0.821963 1.981224 18.395497 1.593883 3.123146 -1.644225 2.287037 5.074684 1.387496 -0.868520 5.479439 -17.141247 -12.413746 42.974884 -53.129725 -25.653815 6.336549 10.292576 -24.658116 -10.620788 -3.326202 -1.283081 0.618635 -18.759349 8.158764 -48.897637 -50.057022 31.972902 -4.052098 1.354373 23.817701 2.753954 -61.401978 -4.208897 -102.424156 78.809819 -105.567069 -3.314942 -12.925648 4.854139 0.226912 0.712780 0.087497 -4.111935 -64.588687 20.463434 98.509380 80.161802 95.764774 -16.117953 -20.647484 -0.434912 -0.629965 -0.638600 -0.328447
-48.952034 50.630736 2.410714 165.219546 -19.443240 -0.106320 2.642903 14.708125 1.582101 0.220310 1.342840 0.059721 0.374847 2.183387 0.089778 2.289225 13.203774 0.812693 2.137122 18.348655 1.498431 3.440179 -1.729767 2.060651 5.080873 1.231331 -0.949411 5.416054 -17.036122 -12.194415 42.970401 -53.032012 -25.786794 6.313059 10.166073 -24.720193 -10.679587 -3.487609 -1.221635 0.580224 -18.722495 8.152190 -48.791982 -49.991414 31.919456 -4.073008 1.343595 23.809832 2.834778 -61.414943 -4.243114 -102.475474 78.819590 -105.600409 -3.342083 -12.931237 4.848304 0.247956 0.725715 0.094800 -4.099969 -64.616465 20.428476 98.728588 80.141258 96.007813 -16.065159 -20.636421 -0.439497 -0.665092 -0.683732 -0.342606
-48.962118 50.623877 2.409075 165.189852 -19.449872 -0.100485 2.670369 14.726431 1.588770 0.219775 1.355092 0.062166 0.377943 2.278867 0.103091 2.306608 13.170190 0.792782 2.301389 18.330489 1.389442 3.777178 -1.761025 1.807106 5.088624 1.091881 -1.025495 5.363641 -16.928626 -11.971029 42.957313 -52.925779 -25.925480 6.296002 10.045208 -24.775741 -10.741179 -3.642261 -1.144889 0.568808 -18.679737 8.113540 -48.719060 -49.836257 31.851142 -4.044995 1.281225 23.830989 2.875754 -61.416831 -4.254475 -102.532976 78.830780 -105.640886 -3.367559 -12.931701 4.842789 0.267433 0.730492 0.100650 -4.122651 -64.627171 20.415019 98.896129 80.116750 96.198470 -16.034331 -20.641786 -0.445984 -0.682198 -0.706154 -0.357098
-48.972688 50.616151 2.407707 165.152048 -19.456424 -0.083501 2.697146 14.766052 1.593932 0.225352 1.342599 0.056013 0.380188 2.291773 0.104890 2.328186 13.204532 0.786665 2.475297 18.335170 1.269502 4.135351 -1.748562 1.530858 5.095952 0.969357 -1.099263 5.321946 -16.824240 -11.741509 42.934354 -52.814177 -26.066631 6.286546 9.933148 -24.822179 -10.788672 -3.762896 -1.078257 0.522012 -18.671211 8.084913 -48.619488 -49.660156 31.762118 -4.014023 1.223680 23.854429 2.926193 -61.414928 -4.271763 -102.571319 78.839245 -105.669856 -3.405593 -12.998049 4.837304 0.296294 0.799744 0.111072 -4.179236 -64.640775 20.393736 99.088900 80.044879 96.394946 -15.841900 -20.563085 -0.458879 -0.829334 -0.811751 -0.418255
-48.983223 50.607618 2.406578 165.138877 -19.464683 -0.066870 2.692132 14.804460 1.603450 0.234189 1.342099 0.041597 0.384926 2.273201 0.095911 2.346149 13.236296 0.784770 2.666839 18.365979 1.140599 4.517516 -1.702332 1.238512 5.106970 0.873928 -1.173225 5.287686 -16.728293 -11.508104 42.899273 -52.702417 -26.205670 6.281894 9.830875 -24.854430 -10.817242 -3.830107 -1.041304 0.439476 -18.709048 8.083814 -48.498822 -49.492266 31.664603 -4.000936 1.187867 23.864355 2.985154 -61.421091 -4.316618 -102.659284 78.836529 -105.746535 -3.419062 -12.989717 4.840900 0.309430 0.792765 0.109453 -4.216950 -64.646851 20.357842 99.224611 79.983880 96.535114 -15.779537 -20.552620 -0.475428 -0.865396 -0.846512 -0.425304
-48.990850 50.599058 2.404297 165.102964 -19.488282 -0.047085 2.719473 14.828426 1.607874 0.235227 1.358388 0.041336 0.389715 2.282831 0.093797 2.369340 13.245668 0.769235 2.869117 18.400513 1.010845 4.930573 -1.631116 0.936076 5.109407 0.786697 -1.242443 5.255062 -16.641237 -11.272563 42.854017 -52.593434 -26.337127 6.278064 9.736218 -24.877066 -10.857014 -3.933340 -0.958718 0.361885 -18.718252 8.046577 -48.362544 -49.314103 31.554134 -3.988824 1.154857 23.870103 3.060935 -61.416110 -4.357766 -102.775966 78.834843 -105.839653 -3.441045 -12.975911 4.833630 0.335247 0.780343 0.115402 -4.217567 -64.632993 20.322736 99.324350 79.942136 96.648116 -15.740852 -20.547839 -0.487273 -0.907671 -0.868456 -0.436140
-49.002291 50.590181 2.400198 165.059568 -19.520261 0.012722 2.749855 14.854843 1.573079 0.230629 1.370532 0.042879 0.403717 2.293117 0.094529 2.395261 13.263342 0.746013 3.083639 18.434788 0.883239 5.376117 -1.542161 0.628855 5.093518 0.714701 -1.284148 5.232867 -16.570544 -11.058877 42.797107 -52.489057 -26.454233 6.278379 9.642895 -24.896991 -10.901949 -4.006095 -0.894108 0.258343 -18.768663 8.044759 -48.211639 -49.132639 31.430031 -3.940469 1.104759 23.890349 3.214154 -61.401982 -4.482284 -102.907116 78.836253 -105.947334 -3.466898 -12.972249 4.825604 0.359654 0.779800 0.133999 -4.122719 -64.611300 20.203105 99.405684 79.911614 96.747174 -15.790201 -20.520669 -0.467567 -0.896374 -0.906748 -0.454445
-49.006135 50.580752 2.398423 165.020962 -19.553488 0.038095 2.791434 14.876116 1.570006 0.226121 1.378586 0.045464 0.413321 2.298973 0.089612 2.423914 13.281376 0.726208 3.318531 18.484122 0.755264 5.847517 -1.439674 0.320666 5.059869 0.679829 -1.278970 5.234391 -16.527184 -10.892960 42.724626 -52.389832 -26.549418 6.282828 9.547310 -24.920640 -10.944929 -4.053134 -0.838549 0.143330 -18.847478 8.061932 -48.049957 -48.947450 31.289507 -3.949187 1.092269 23.881373 3.297983 -61.387444 -4.540229 -103.024724 78.835619 -106.039981 -3.448489 -12.961372 4.814615 0.348088 0.768880 0.136806 -4.089562 -64.583304 20.152216 99.432535 79.878537 96.810631 -15.824391 -20.521877 -0.502406 -0.869515 -0.908897 -0.438235
-49.009697 50.570361 2.398647 164.998974 -19.577384 0.069415 2.817539 14.885210 1.550369 0.244045 1.375796 0.046537 0.388472 2.317415 0.088870 2.471078 13.300704 0.701427 3.563129 18.540030 0.628534 6.335742 -1.323077 0.012584 5.061186 0.586543 -1.391495 5.153643 -16.443633 -10.597624 42.637945 -52.296765 -26.619714 6.283764 9.452096 -24.953996 -10.978691 -4.188627 -0.741686 0.025538 -18.852323 8.046821 -47.874239 -48.757578 31.129878 -3.945122 1.066812 23.877635 3.384430 -61.381233 -4.620849 -103.144755 78.832777 -106.133307 -3.435991 -12.957564 4.811209 0.345057 0.764589 0.131289 -4.030276 -64.564274 20.085352 99.447270 79.857410 96.826506 -15.834510 -20.518845 -0.500347 -0.842871 -0.903124 -0.431044
